<?xml version="1.0" encoding="utf-8"?>
<!-- Generator: Adobe Illustrator 18.0.0, SVG Export Plug-In . SVG Version: 6.00 Build 0)  -->
<!DOCTYPE svg PUBLIC "-//W3C//DTD SVG 1.1//EN" "http://www.w3.org/Graphics/SVG/1.1/DTD/svg11.dtd">
<svg version="1.1" id="Layer_1" xmlns="http://www.w3.org/2000/svg" xmlns:xlink="http://www.w3.org/1999/xlink" x="0px" y="0px"
	 viewBox="0 0 800 800" enable-background="new 0 0 800 800" xml:space="preserve">
<g>
	<path fill="#004079" d="M401.8,446c-1,0-1.8-0.3-2.6-0.6c-4.3-1.8-8.6-3.7-12.9-5.5c-5.7-2.4-11.4-4.8-17.1-7.2
		c-5.9-2.5-11.7-5.1-17.6-7.6c-7.1-3-14.1-6-21.2-9c-6-2.5-11.9-5.1-17.9-7.7c-7-3-13.9-5.9-20.9-8.9c-6.1-2.6-12.1-5.2-18.2-7.8
		c-6.9-2.9-13.7-5.8-20.6-8.7c-6.1-2.6-12.1-5.2-18.2-7.8c-5.6-2.4-11.2-4.7-16.8-7.1c-6-2.5-11.9-5.1-17.9-7.7
		c-5.4-2.3-10.8-4.5-16.2-6.8c-6.3-2.7-12.5-5.4-18.8-8.1c-6.1-2.6-12.2-5.2-18.2-7.8c-8.7-3.7-17.4-7.5-26.2-11.2
		c-5-2.1-10-4.3-15-6.4c-9.1-3.9-18.3-7.7-27.4-11.6c-5.2-2.2-10.4-4.5-15.5-6.8c-0.4-0.2-0.8-0.4-1.1-0.6c-0.4-0.2-0.4-0.9,0.1-1.1
		c1.4-0.6,2.7-1.2,4.1-1.7c10.7-4.1,21.5-8.3,32.2-12.4c5.4-2.1,10.8-4,16.2-6.1c5.9-2.2,11.7-4.5,17.6-6.8
		c6.1-2.3,12.2-4.6,18.2-6.9c4.7-1.8,9.4-3.6,14-5.4c10.4-3.9,20.7-7.9,31.1-11.8c5.7-2.2,11.3-4.4,17-6.6c4.8-1.8,9.6-3.7,14.3-5.5
		c6.1-2.3,12.2-4.6,18.2-6.9c6.3-2.4,12.6-4.7,18.8-7.1c6.1-2.3,12.1-4.7,18.2-7c9-3.4,18-6.8,26.9-10.2c6.2-2.3,12.3-4.7,18.5-7.1
		c8.4-3.2,16.7-6.4,25.1-9.6c6.2-2.4,12.3-4.7,18.5-7.1c8.9-3.4,17.7-6.8,26.6-10.2c0.7-0.3,1.4-0.5,2.1-0.7
		c1.9-0.7,3.7-0.6,5.6,0.1c8.4,3.3,16.9,6.6,25.4,9.8c10,3.8,19.9,7.5,29.9,11.3c8.9,3.4,17.7,6.8,26.6,10.2
		c8.3,3.2,16.5,6.3,24.8,9.4c7.8,3,15.5,5.9,23.3,8.9c8.5,3.2,16.9,6.4,25.4,9.7c5.9,2.2,11.7,4.5,17.6,6.7
		c9.3,3.5,18.6,7,27.8,10.5c5.7,2.2,11.3,4.4,17,6.6c4.9,1.9,9.8,3.7,14.6,5.6c6.7,2.5,13.3,5.1,20,7.6c6.1,2.3,12.2,4.5,18.3,6.9
		c5.6,2.1,11.1,4.3,16.7,6.5c8.5,3.2,16.9,6.5,25.4,9.7c7.4,2.8,14.7,5.6,22.1,8.4c0.7,0.3,1.4,0.6,2,0.9c0.7,0.4,0.8,1.2,0,1.5
		c-2.2,1.1-4.4,2.1-6.7,3c-9.1,3.9-18.3,7.6-27.4,11.6c-9.9,4.3-19.8,8.4-29.7,12.6c-7.2,3-14.3,6.2-21.4,9.3c-6,2.6-12,5.1-18,7.6
		c-8,3.4-16.1,6.9-24.1,10.3c-7.7,3.2-15.3,6.5-23,9.7c-5.3,2.3-10.6,4.6-15.9,6.8c-5.6,2.4-11.2,4.7-16.8,7.1
		c-6,2.5-11.9,5.1-17.9,7.7c-5.9,2.5-11.8,5-17.7,7.5c-6,2.6-11.9,5.2-17.9,7.7c-4.3,1.9-8.6,3.7-13,5.5
		c-8.8,3.7-17.7,7.4-26.5,11.3c-6.8,3-13.8,5.8-20.6,8.7c-7.5,3.2-15.1,6.5-22.6,9.7c-4.6,2-9.2,3.9-13.8,5.8
		c-1.3,0.5-2.5,1.1-3.8,1.6C403.9,445.5,402.8,445.9,401.8,446z"/>
	<path fill="#004079" d="M401.8,651.8c-0.9,0-1.8-0.4-2.7-0.8c-9.6-4.1-19.2-8.3-28.8-12.4c-6.9-2.9-13.8-5.8-20.6-8.7
		c-5.8-2.5-11.5-5-17.3-7.5c-3.2-1.4-6.5-2.7-9.7-4.1c-6.7-2.8-13.3-5.7-20-8.5c-6.8-2.9-13.5-5.7-20.3-8.6
		c-6.2-2.6-12.3-5.3-18.5-7.9c-7-3-13.9-5.9-20.9-8.9c-6.1-2.6-12.1-5.2-18.2-7.8c-5.3-2.3-10.6-4.5-15.9-6.7
		c-6.2-2.6-12.3-5.3-18.5-7.9c-7.1-3-14.1-6-21.2-9c-6-2.5-11.9-5.1-17.9-7.7c-7-3-13.9-5.9-20.9-8.9c-6.1-2.6-12.1-5.2-18.2-7.8
		c-5.3-2.3-10.6-4.5-15.9-6.7c-6.3-2.7-12.5-5.4-18.8-8.1c-4.9-2.1-9.8-4.2-14.7-6.3c-0.5-0.2-1-0.4-1.4-0.7c-0.3-0.2-0.3-0.6,0-0.8
		c0.5-0.4,1.1-0.7,1.6-0.9c3.3-1.3,6.6-2.5,9.9-3.7c10.9-4.1,21.7-8.2,32.6-12.4c6.2-2.4,12.3-4.8,18.5-7.1c6.6-2.5,13.2-5,19.7-7.5
		c6-2.3,11.9-4.6,17.9-6.9c6.3-2.4,12.6-4.7,18.9-7.1c4.7-1.8,9.4-3.5,14-5.4c1.8-0.7,3.4-0.7,5.2,0.1c6.4,2.8,12.7,5.4,19.1,8.2
		c5.1,2.2,10.2,4.3,15.3,6.5c8,3.5,16.2,6.7,24.1,10.2c7.6,3.4,15.3,6.5,23,9.7c6.5,2.8,12.9,5.5,19.4,8.3
		c6.2,2.6,12.4,5.3,18.5,7.9c6.9,2.9,13.7,5.8,20.6,8.8c6.2,2.6,12.4,5.3,18.5,7.9c7,3,13.9,6,20.9,8.9c6.6,2.8,13.2,5.5,19.7,8.4
		c2.3,1,4.4,0.9,6.7-0.1c7.8-3.4,15.7-6.7,23.5-10c7.2-3.1,14.3-6.2,21.4-9.3c5.6-2.4,11.2-4.7,16.8-7c7.4-3.1,14.7-6.4,22-9.5
		c5.6-2.4,11.2-4.7,16.8-7.1c7.4-3.2,14.9-6.4,22.3-9.6c5.5-2.3,11-4.6,16.5-6.9c7.5-3.2,15.1-6.5,22.6-9.7
		c4.4-1.9,8.8-3.7,13.3-5.6c8-3.4,15.9-6.7,23.8-10.1c1.5-0.6,2.8-0.7,4.3-0.1c6.3,2.5,12.7,5,19.1,7.4c8.4,3.2,16.7,6.4,25.1,9.6
		c7.7,2.9,15.3,5.9,23,8.8c8.6,3.3,17.1,6.5,25.7,9.8c7.9,3,15.7,6,23.6,9c5,1.9,10,3.8,14.9,5.7c0.3,0.1,0.6,0.2,0.9,0.3
		c0.5,0.2,1.1,0.3,1.2,0.9c0.1,0.8-0.7,1-1.2,1.3c-2,0.9-4.1,1.9-6.1,2.7c-5.6,2.3-11.2,4.6-16.8,7c-5.7,2.4-11.3,4.9-17,7.4
		c-4.6,2-9.2,3.9-13.8,5.8c-8.4,3.6-16.8,7.2-25.3,10.8c-4.5,1.9-9,3.8-13.6,5.7c-8.6,3.6-17.3,7.2-25.9,11.1
		c-5.2,2.4-10.6,4.4-15.9,6.7c-6.1,2.6-12.1,5.3-18.2,7.9c-4.6,2-9.2,3.9-13.8,5.8c-8.4,3.6-16.8,7.2-25.3,10.8
		c-4.6,2-9.2,3.9-13.8,5.8c-8.4,3.6-16.8,7.2-25.3,10.8c-5.4,2.3-10.8,4.5-16.2,6.8c-6.1,2.6-12.1,5.3-18.2,7.9
		c-4.5,1.9-9,3.8-13.5,5.7c-8.5,3.6-17,7.3-25.6,10.9c-4.4,1.9-8.8,3.7-13.3,5.6c-6.4,2.7-12.8,5.4-19.2,8.1
		C403.5,651.3,402.7,651.8,401.8,651.8z"/>
	<path fill="#004079" d="M117.2,349.6c1.2-0.1,2,0.3,2.8,0.6c4.1,1.7,8.2,3.5,12.4,5.3c5.7,2.4,11.3,4.9,17,7.4
		c9.1,3.9,18.3,7.7,27.4,11.6c10.7,4.5,21.4,9,32.1,13.6c5.4,2.3,10.7,4.7,16.1,7c3.5,1.5,7.1,3,10.6,4.5c6.4,2.7,12.7,5.5,19.1,8.2
		c6.9,2.9,13.7,5.8,20.6,8.7c6.2,2.6,12.3,5.3,18.5,7.9c6.8,2.9,13.5,5.7,20.3,8.6c6.2,2.6,12.3,5.3,18.5,7.9c7,3,13.9,5.9,20.9,8.9
		c6.2,2.6,12.3,5.3,18.5,7.9c7.4,3.1,14.7,6.2,22.1,9.3c2,0.8,4,1.6,5.9,2.5c1.3,0.6,2.4,0.5,3.7,0c3.9-1.7,7.9-3.3,11.8-5
		c5.1-2.2,10.2-4.4,15.3-6.6c8.2-3.5,16.5-7,24.7-10.5c9.2-3.9,18.5-7.8,27.7-11.7c5.7-2.4,11.3-5,17-7.4c4.5-1.9,9-3.8,13.5-5.7
		c8.6-3.6,17.3-7.2,25.9-11.1c4.5-2,9-3.8,13.6-5.7c7-3,13.9-6,20.9-8.9c5.6-2.4,11.2-4.7,16.8-7c5.8-2.5,11.5-5,17.3-7.5
		c5.7-2.4,11.4-4.8,17.1-7.2c7.4-3.1,14.7-6.3,22-9.5c4.5-1.9,9-3.8,13.5-5.7c6.7-2.8,13.3-5.7,20-8.5c5.4-2.2,4.1-2.4,10-0.2
		c10.2,3.8,20.3,7.7,30.5,11.6c6.7,2.6,13.3,5.2,20,7.7c0.2,0.1,0.4,0.2,0.6,0.3c0.5,0.3,0.5,1.1,0.1,1.4c-0.5,0.3-1.1,0.6-1.7,0.9
		c-8.5,3.7-17,7.3-25.6,11c-5.4,2.3-10.8,4.5-16.2,6.8c-5.7,2.4-11.4,4.9-17,7.3c-4.4,1.9-8.9,3.7-13.3,5.6
		c-7.3,3.1-14.7,6.4-22,9.5c-5.6,2.4-11.2,4.7-16.8,7.1c-7.4,3.2-14.9,6.4-22.3,9.6c-5.5,2.3-11,4.6-16.5,6.9
		c-7.5,3.2-15.1,6.5-22.6,9.7c-5.4,2.3-10.8,4.5-16.2,6.8c-7.6,3.3-15.3,6.6-22.9,9.9c-5.6,2.4-11.2,4.7-16.8,7
		c-7.4,3.1-14.7,6.4-22,9.5c-5.5,2.3-11,4.6-16.5,6.9c-7.5,3.2-15.1,6.5-22.6,9.7c-5.7,2.4-11.4,4.7-17.1,7.2
		c-7.3,3.1-14.5,6.3-21.7,9.4c-2.6,1.1-5.3,2.2-7.9,3.4c-1.5,0.7-2.8,0.6-4.3,0c-3.8-1.7-7.7-3.2-11.5-4.9
		c-7.6-3.2-15.1-6.5-22.6-9.7c-5.9-2.5-11.8-5-17.7-7.5c-6.9-2.9-13.7-5.8-20.6-8.8c-6.2-2.6-12.4-5.3-18.5-7.9
		c-6.9-2.9-13.7-5.9-20.6-8.8c-6.2-2.6-12.4-5.3-18.5-7.9c-6.9-2.9-13.7-5.9-20.6-8.8c-6.1-2.6-12.2-5.2-18.2-7.8
		c-6.9-2.9-13.7-5.8-20.6-8.8c-6.2-2.6-12.4-5.3-18.5-7.9c-6.9-2.9-13.7-5.8-20.6-8.8c-6.2-2.6-12.4-5.3-18.5-7.9
		c-6.9-2.9-13.7-5.9-20.6-8.8c-6.1-2.6-12.2-5.2-18.2-7.8c-6.9-2.9-13.7-5.9-20.6-8.8c-7.5-3.2-14.9-6.3-22.4-9.5
		c-3.1-1.3-6.3-2.7-9.4-4.1c-0.6-0.2-0.6-1,0-1.3c1.7-0.8,3.5-1.6,5.3-2.3c9.7-3.8,19.5-7.5,29.3-11.2c6.4-2.4,12.8-4.9,19.1-7.3
		C115.9,350,116.7,349.8,117.2,349.6z"/>
</g>
</svg>
