<?xml version="1.0" encoding="utf-8"?>
<!-- Generator: Adobe Illustrator 17.0.0, SVG Export Plug-In . SVG Version: 6.00 Build 0)  -->
<!DOCTYPE svg PUBLIC "-//W3C//DTD SVG 1.1//EN" "http://www.w3.org/Graphics/SVG/1.1/DTD/svg11.dtd">
<svg version="1.1" id="Layer_1" xmlns="http://www.w3.org/2000/svg" xmlns:xlink="http://www.w3.org/1999/xlink" x="0px" y="0px"
	 width="612px" height="792px" viewBox="0 0 612 792" enable-background="new 0 0 612 792" xml:space="preserve">
<polygon fill="#004177" points="40.009,318.5 303.509,215.5 586.03,320.742 528.622,349.448 581.574,369.691 484.009,427.518 
	593.009,474.5 303.815,597.348 19.603,476.233 134.009,427.518 30.092,369.101 93.621,350.411 43.009,325.13 "/>
<path display="none" fill="#FAFBFE" d="M885.38,131.677"/>
<line display="none" fill="none" x1="294.311" y1="206.158" x2="397.004" y2="-58.104"/>
<polyline fill="none" stroke="#000000" stroke-width="16" stroke-miterlimit="10" points="462.856,427.518 590.519,476.233 
	306.306,597.348 22.093,476.233 149.756,427.518 "/>
<polyline fill="none" stroke="#000000" stroke-width="16" stroke-miterlimit="10" points="523.444,347.468 590.519,373.111 
	537.764,395.572 306.306,494.226 74.848,395.572 22.093,373.111 89.168,347.468 "/>
<polygon fill="none" stroke="#000000" stroke-width="16" stroke-miterlimit="10" points="420.872,391.165 306.306,440.003 
	191.74,391.165 138.985,368.705 22.093,318.827 306.306,210.258 590.519,318.827 473.627,368.705 "/>
</svg>
