<?xml version="1.0" encoding="utf-8"?>
<!-- Generator: Adobe Illustrator 18.0.0, SVG Export Plug-In . SVG Version: 6.00 Build 0)  -->
<!DOCTYPE svg PUBLIC "-//W3C//DTD SVG 1.1//EN" "http://www.w3.org/Graphics/SVG/1.1/DTD/svg11.dtd">
<svg version="1.1" id="Layer_1" xmlns="http://www.w3.org/2000/svg" xmlns:xlink="http://www.w3.org/1999/xlink" x="0px" y="0px"
	 viewBox="0 0 1000 1000" enable-background="new 0 0 1000 1000" xml:space="preserve">
<path fill="#FAFBFE" d="M1446.7,68.1"/>
<line fill="none" x1="480.9" y1="189.8" x2="648.7" y2="-242"/>
<path fill="#FFFFFF" d="M0,0v1000h490h511V0H0z M964.9,462.6l-208.6,88.9l208.6,79.6L509,829L36.1,631.1l208.6-79.6L36.1,462.6
	l109.6-41.9L36.1,373.9l464.4-177.4l464.4,177.4l-109.6,46.8L964.9,462.6z"/>
<polyline fill="none" stroke="#000000" stroke-width="22" stroke-miterlimit="10" points="756.3,551.5 964.9,631.1 500.5,829 
	36.1,631.1 244.7,551.5 "/>
<polyline fill="none" stroke="#000000" stroke-width="22" stroke-miterlimit="10" points="855.3,420.7 964.9,462.6 878.7,499.3 
	500.5,660.5 122.3,499.3 36.1,462.6 145.7,420.7 "/>
<polygon fill="none" stroke="#000000" stroke-width="22" stroke-miterlimit="10" points="687.7,492.1 500.5,571.9 313.3,492.1 
	227.1,455.4 36.1,373.9 500.5,196.5 964.9,373.9 773.9,455.4 "/>
</svg>
