<?xml version="1.0" encoding="utf-8"?>
<!-- Generator: Adobe Illustrator 18.0.0, SVG Export Plug-In . SVG Version: 6.00 Build 0)  -->
<!DOCTYPE svg PUBLIC "-//W3C//DTD SVG 1.1//EN" "http://www.w3.org/Graphics/SVG/1.1/DTD/svg11.dtd">
<svg version="1.1" id="Layer_1" xmlns="http://www.w3.org/2000/svg" xmlns:xlink="http://www.w3.org/1999/xlink" x="0px" y="0px"
	 viewBox="0 0 1000 1000" enable-background="new 0 0 1000 1000" xml:space="preserve">
<path fill="#FAFBFE" d="M1446.7,68.1"/>
<line fill="none" x1="480.9" y1="189.8" x2="648.7" y2="-242"/>
<line fill="none" x1="537" y1="1318.5" x2="356.9" y2="891.7"/>
<path fill="#FFFFFF" d="M0,0v1000h500.5H1001V0H0z M959.9,546.6L858.1,590l106.8,41.1L500.5,829L35.1,630.4L142.9,590L36.1,544.5
	l202.8-77.6L28.1,373.7l472.4-177.2l464.4,177.4L760,463.8L959.9,546.6z"/>
<polyline fill="none" stroke="#000000" stroke-width="22" stroke-miterlimit="10" points="858.1,590 964.9,631.1 500.5,829 
	36.1,631.1 142.9,590 "/>
<polyline fill="none" stroke="#000000" stroke-width="22" stroke-miterlimit="10" points="754.1,463.8 964.9,544.5 878.7,581.2 
	500.5,742.4 122.3,581.2 36.1,544.5 246.9,463.8 "/>
<polygon fill="none" stroke="#000000" stroke-width="22" stroke-miterlimit="10" points="687.7,492.1 500.5,571.9 313.3,492.1 
	227.1,455.4 36.1,373.9 500.5,196.5 964.9,373.9 773.9,455.4 "/>
</svg>
