<?xml version="1.0" encoding="utf-8"?>
<!-- Generator: Adobe Illustrator 18.0.0, SVG Export Plug-In . SVG Version: 6.00 Build 0)  -->
<!DOCTYPE svg PUBLIC "-//W3C//DTD SVG 1.1//EN" "http://www.w3.org/Graphics/SVG/1.1/DTD/svg11.dtd">
<svg version="1.1" id="Layer_1" xmlns="http://www.w3.org/2000/svg" xmlns:xlink="http://www.w3.org/1999/xlink" x="0px" y="0px"
	 viewBox="0 0 800 800" enable-background="new 0 0 800 800" xml:space="preserve">
<g>
	<path fill="#AAAAAA" d="M401.9,169.8c0.9,0.3,1.8,0.5,2.6,0.8c8.8,3.4,17.5,6.8,26.3,10.1c10,3.8,20,7.5,29.9,11.3
		c9,3.4,17.9,6.9,26.9,10.4c8.3,3.2,16.6,6.3,24.8,9.4c6.1,2.3,12.1,4.7,18.2,7c7.2,2.7,14.4,5.4,21.5,8.2c4.4,1.7,8.8,3.4,13.1,5.1
		c8.6,3.3,17.1,6.5,25.7,9.8c7.7,2.9,15.3,5.9,23,8.8c8.6,3.3,17.1,6.5,25.7,9.8c6.1,2.3,12.1,4.7,18.2,7c8.4,3.2,16.7,6.4,25.1,9.6
		c7.8,3,15.5,5.9,23.3,8.9c8.5,3.2,16.9,6.5,25.4,9.7c3,1.1,6,2.3,9,3.4c0.5,0.2,1,0.5,1.4,0.8c0.5,0.3,0.4,1.1-0.1,1.3
		c-0.4,0.2-0.8,0.4-1.2,0.6c-5.3,2.3-10.6,4.5-15.9,6.8c-6.7,2.8-13.3,5.7-20,8.6c-6.1,2.6-12.2,5.2-18.2,7.8c-7.1,3-14.1,6-21.2,9
		c-6.6,2.8-13.1,5.6-19.7,8.4c-8.1,3.5-16.3,6.9-24.4,10.4c-9.2,3.9-18.5,7.8-27.7,11.7c-8.2,3.5-16.4,7.1-24.7,10.6
		c-6.1,2.6-12.2,5.1-18.3,7.7c-7.9,3.4-15.9,6.8-23.8,10.1c-8.1,3.5-16.3,6.9-24.4,10.4c-7.8,3.3-15.7,6.7-23.5,10
		c-8.2,3.5-16.5,7-24.7,10.5c-7.8,3.3-15.7,6.7-23.5,10c-7.7,3.3-15.3,6.5-23,9.7c-1.3,0.5-2.5,1.1-3.8,1.7c-1.4,0.6-2.8,0.6-4.3,0
		c-3.9-1.7-7.9-3.3-11.8-5c-6.4-2.7-12.7-5.4-19.1-8.2c-6.7-2.8-13.3-5.7-20-8.5c-6.4-2.7-12.8-5.4-19.1-8.1
		c-6.7-2.8-13.3-5.7-20-8.5c-6.4-2.7-12.8-5.4-19.1-8.1c-6.7-2.8-13.3-5.7-20-8.5c-6.1-2.6-12.2-5.2-18.2-7.8
		c-6.9-2.9-13.7-5.8-20.6-8.8c-6.4-2.7-12.8-5.4-19.1-8.1c-6.7-2.8-13.3-5.7-20-8.5c-6.4-2.7-12.8-5.4-19.1-8.1
		c-6.9-2.9-13.7-5.9-20.6-8.8c-6.2-2.6-12.4-5.2-18.6-7.9c-6.7-2.8-13.3-5.7-20-8.5c-7.6-3.3-15.3-6.5-22.9-9.8
		c-7-3-13.9-5.9-20.9-8.9c-2.5-1-4.9-2.1-7.4-3.1c-0.6-0.3-1.1-0.6-1.7-0.9c-0.4-0.2-0.4-0.9,0-1.1c1.2-0.5,2.3-1.1,3.5-1.5
		c8.7-3.3,17.3-6.6,26-9.9c11.1-4.2,22.1-8.4,33.2-12.6c8.2-3.1,16.3-6.3,24.5-9.4c9.2-3.5,18.3-7,27.5-10.5
		c10.6-4,21.1-8,31.7-12.1c6.1-2.3,12.1-4.7,18.2-7c8.4-3.2,16.7-6.4,25.1-9.6c6-2.3,11.9-4.6,17.9-6.9c8.6-3.3,17.1-6.5,25.7-9.8
		c6.1-2.3,12.1-4.7,18.2-7c8.4-3.2,16.7-6.4,25.1-9.6c7.8-3,15.5-5.9,23.3-8.9c8.5-3.2,16.9-6.4,25.4-9.7c3.7-1.4,7.3-2.9,11-4.3
		C399.1,170.6,400.5,170.3,401.9,169.8z"/>
	<path fill="#AAAAAA" d="M402.2,582.2c-1.3,0-2.3-0.4-3.3-0.8c-6.3-2.7-12.5-5.4-18.8-8.1c-6.4-2.7-12.7-5.4-19.1-8.1
		c-6.7-2.8-13.3-5.7-20-8.5c-6.4-2.7-12.8-5.4-19.1-8.1c-6.9-2.9-13.7-5.9-20.6-8.8c-6.1-2.6-12.2-5.2-18.3-7.7
		c-6.7-2.8-13.3-5.7-20-8.5c-6.4-2.7-12.7-5.4-19.1-8.1c-6.7-2.8-13.3-5.7-20-8.5c-6.4-2.7-12.7-5.4-19.1-8.1
		c-6.7-2.8-13.3-5.7-20-8.5c-6.4-2.7-12.8-5.4-19.1-8.1c-6.6-2.8-13.1-5.6-19.7-8.4c-6.4-2.7-12.7-5.4-19.1-8.2
		c-6.7-2.8-13.3-5.7-20-8.5c-6.5-2.8-13-5.5-19.4-8.3c-6.8-2.9-13.5-5.8-20.3-8.7c-1.9-0.8-3.7-1.6-5.6-2.4c-0.6-0.3-0.6-1-0.1-1.3
		c0.7-0.4,1.5-0.8,2.3-1.1c9.7-3.7,19.3-7.4,29-11.1c11.1-4.2,22.1-8.4,33.2-12.6c8.9-3.4,17.7-6.8,26.6-10.2
		c8.4-3.2,16.7-6.4,25.1-9.6c5.9-2.2,11.8-4.4,17.6-6.8c2.4-1,4.5-0.9,6.8,0.1c3.8,1.7,7.6,3.3,11.5,4.9c6.4,2.7,12.8,5.4,19.1,8.1
		c8,3.4,16.1,6.8,24.1,10.3c8.2,3.5,16.5,7,24.7,10.5c10.8,4.6,21.6,9.2,32.3,13.8c7.6,3.3,15.3,6.5,23,9.7
		c6.5,2.8,12.9,5.5,19.4,8.3c6.5,2.8,13,5.5,19.4,8.3c6.7,2.8,13.3,5.7,20,8.6c1.1,0.5,2.2,0.8,3.2,1.4c2.1,1.1,4.1,0.9,6.2,0
		c4.5-1.9,9-3.8,13.5-5.7c6.9-2.9,13.7-5.9,20.6-8.8c7.8-3.3,15.7-6.7,23.5-10c8.2-3.5,16.5-7,24.7-10.5c9.3-4,18.6-8,27.9-11.9
		c7.7-3.3,15.5-6.5,23.3-9.8c6.4-2.7,12.7-5.5,19.1-8.2c6.5-2.8,12.9-5.5,19.4-8.3c6.7-2.8,13.3-5.7,20-8.6c1.7-0.7,3.4-1.4,5-2.2
		c1.9-0.9,3.7-0.9,5.6-0.2c2.3,0.9,4.6,1.7,6.9,2.6c9.5,3.6,18.9,7.2,28.4,10.9c6.1,2.3,12.1,4.7,18.2,7c8.4,3.2,16.7,6.4,25.1,9.6
		c6.2,2.4,12.3,4.8,18.5,7.1c11.2,4.3,22.3,8.5,33.5,12.8c1,0.4,2,0.8,3,1.2c0.6,0.2,1.3,0.4,1.3,1.2c-0.1,0.7-0.8,0.9-1.4,1.2
		c-1.2,0.5-2.3,1-3.5,1.5c-6.2,2.6-12.4,5.2-18.6,7.8c-6.5,2.8-12.9,5.5-19.4,8.3c-6.4,2.7-12.7,5.4-19.1,8.1
		c-6.7,2.8-13.3,5.7-20,8.5c-6.4,2.7-12.8,5.4-19.1,8.1c-6.9,2.9-13.7,5.9-20.6,8.8c-6.1,2.6-12.2,5.2-18.2,7.7
		c-6.7,2.8-13.3,5.7-20,8.5c-6.4,2.7-12.7,5.4-19.1,8.1c-6.7,2.8-13.3,5.7-20,8.5c-6.4,2.7-12.7,5.4-19.1,8.1
		c-6.7,2.8-13.3,5.7-20,8.5c-6.4,2.7-12.8,5.4-19.1,8.1c-6.7,2.8-13.3,5.7-20,8.5c-6.4,2.7-12.8,5.4-19.1,8.1
		c-6.8,2.9-13.5,5.8-20.3,8.7c-7.3,3.1-14.5,6.2-21.8,9.3C403.2,582,402.6,582.1,402.2,582.2z"/>
	<path fill="#AAAAAA" d="M401.8,651.4c-1.1,0-1.9-0.3-2.7-0.6c-4.1-1.7-8.2-3.5-12.4-5.2c-9-3.8-18-7.7-27.1-11.6
		c-6.9-2.9-13.7-5.8-20.6-8.8c-6.4-2.7-12.8-5.4-19.1-8.1c-6.7-2.8-13.3-5.7-20-8.5c-6.4-2.7-12.8-5.4-19.1-8.1
		c-6.9-2.9-13.7-5.9-20.6-8.8c-6.1-2.6-12.2-5.2-18.3-7.7c-6.7-2.8-13.3-5.7-20-8.5c-6.4-2.7-12.7-5.4-19.1-8.2
		c-6.7-2.8-13.3-5.7-20-8.5c-6.4-2.7-12.8-5.4-19.1-8.1c-6.7-2.8-13.3-5.7-20-8.5c-6.4-2.7-12.8-5.4-19.1-8.1
		c-6.7-2.8-13.3-5.7-20-8.5c-6.4-2.7-12.8-5.4-19.1-8.1c-7.7-3.3-15.5-6.6-23.2-9.9c-0.3-0.1-0.6-0.3-0.8-0.5
		c-0.5-0.3-0.6-1.1,0-1.3c1.4-0.6,2.7-1.2,4.1-1.7c7.9-3,15.7-6,23.6-9.1c8.1-3.1,16.1-6.1,24.2-9.3c1.5-0.6,2.9-0.6,4.3,0.1
		c6,2.6,12,5.1,18,7.6c6.8,2.9,13.5,5.8,20.3,8.7c7.9,3.4,15.9,6.8,23.8,10.1c8.2,3.5,16.5,7,24.7,10.5c9.3,4,18.6,8,27.9,11.9
		c7.5,3.2,14.9,6.3,22.4,9.5c7,3,13.9,6,20.9,8.9c6.1,2.6,12.2,5.1,18.3,7.7c6.7,2.8,13.3,5.7,20,8.5c6.4,2.7,12.8,5.4,19.1,8.1
		c6.7,2.8,13.3,5.7,20,8.5c6.4,2.7,12.8,5.4,19.1,8.1c6.8,2.9,13.5,5.8,20.3,8.7c2,0.8,3.9,1.7,5.9,2.5c2.4,1,4.6,1,7.1-0.1
		c7.8-3.5,15.7-6.7,23.5-10c6.7-2.8,13.3-5.7,20-8.6c6.1-2.6,12.2-5.2,18.3-7.8c6.7-2.8,13.3-5.7,20-8.5c6.4-2.7,12.7-5.4,19.1-8.2
		c6.7-2.8,13.3-5.7,20-8.5c6.3-2.7,12.6-5.4,18.8-8c6.7-2.8,13.3-5.7,20-8.5c6.4-2.7,12.7-5.4,19.1-8.2c6.7-2.8,13.3-5.7,20-8.5
		c6.4-2.7,12.7-5.4,19.1-8.2c6.7-2.8,13.3-5.7,20-8.5c6.4-2.7,12.8-5.4,19.1-8.1c6.9-2.9,13.7-5.9,20.6-8.8c0.1,0,0.2-0.1,0.3-0.1
		c5.3-2.2,4.4-2.1,9.1-0.3c10.9,4.3,21.9,8.4,32.8,12.6c4.9,1.9,9.8,3.7,14.6,5.6c0.9,0.3,1.8,0.8,2.6,1.2c0.4,0.2,0.4,0.8-0.1,1
		c-3,1.3-6,2.7-9.1,4c-8,3.4-16.1,6.9-24.1,10.3c-7.7,3.2-15.3,6.5-23,9.7c-5.7,2.4-11.3,4.9-17,7.4c-4.7,2-9.4,4-14.1,6
		c-7.9,3.4-15.9,6.8-23.8,10.1c-7.7,3.2-15.3,6.5-23,9.7c-6.5,2.8-12.9,5.5-19.4,8.3c-6.4,2.7-12.7,5.4-19.1,8.2
		c-6.7,2.8-13.3,5.7-20,8.5c-6.4,2.7-12.7,5.4-19.1,8.2c-6.7,2.8-13.3,5.7-20,8.5c-6.4,2.7-12.8,5.4-19.1,8.1
		c-6.7,2.8-13.3,5.7-20,8.5c-6.4,2.7-12.8,5.4-19.1,8.1c-6.7,2.8-13.3,5.7-20,8.5c-6.4,2.7-12.8,5.4-19.1,8.1
		c-2.5,1.1-5.1,2.2-7.6,3.3C404.3,650.9,403,651.4,401.8,651.4z"/>
</g>
</svg>
