<?xml version="1.0" encoding="utf-8"?>
<!-- Generator: Adobe Illustrator 17.0.0, SVG Export Plug-In . SVG Version: 6.00 Build 0)  -->
<!DOCTYPE svg PUBLIC "-//W3C//DTD SVG 1.1//EN" "http://www.w3.org/Graphics/SVG/1.1/DTD/svg11.dtd">
<svg version="1.1" id="Layer_1" xmlns="http://www.w3.org/2000/svg" xmlns:xlink="http://www.w3.org/1999/xlink" x="0px" y="0px"
	 width="612px" height="792px" viewBox="0 0 612 792" enable-background="new 0 0 612 792" xml:space="preserve">
<path fill="#FAFBFE" d="M885.38,131.677"/>
<polyline fill="#2A86C9" points="26.509,317.14 306.306,210.258 586.103,317.14 461.509,373.846 586.103,421.544 525.157,451.08
	586.103,474.534 306.306,597.348 22.093,476.233 75.5,451.08 22.093,423.234 143.5,373.846 "/>
<line display="none" fill="none" x1="294.311" y1="206.158" x2="397.004" y2="-58.104"/>
<line fill="none" x1="328.644" y1="896.922" x2="218.423" y2="635.72"/>
<polyline fill="none" stroke="#000000" stroke-width="16" stroke-miterlimit="10" points="525.157,451.08 590.519,476.233 
	306.306,597.348 22.093,476.233 87.455,451.08 "/>
<polyline fill="none" stroke="#000000" stroke-width="16" stroke-miterlimit="10" points="461.509,373.846 590.519,423.234 
	537.764,445.694 306.306,544.349 74.848,445.694 22.093,423.234 151.103,373.846 "/>
<polygon fill="none" stroke="#000000" stroke-width="16" stroke-miterlimit="10" points="420.872,391.165 306.306,440.003 
	191.74,391.165 138.985,368.705 22.093,318.827 306.306,210.258 590.519,318.827 473.627,368.705 "/>
</svg>
