<?xml version="1.0" encoding="utf-8"?>
<!-- Generator: Adobe Illustrator 18.0.0, SVG Export Plug-In . SVG Version: 6.00 Build 0)  -->
<!DOCTYPE svg PUBLIC "-//W3C//DTD SVG 1.1//EN" "http://www.w3.org/Graphics/SVG/1.1/DTD/svg11.dtd">
<svg version="1.1" id="Layer_1" xmlns="http://www.w3.org/2000/svg" xmlns:xlink="http://www.w3.org/1999/xlink" x="0px" y="0px"
	 viewBox="0 0 1000 1000" enable-background="new 0 0 1000 1000" xml:space="preserve">
<path fill="#FAFBFE" d="M1446.7,68.1"/>
<line fill="none" x1="480.9" y1="189.8" x2="648.7" y2="-242"/>
<line fill="none" x1="537" y1="1318.5" x2="356.9" y2="891.7"/>
<polyline fill="#FAFBFE" points="0,1000 490,1000 509,829 36.1,631.1 136,590 36.1,544.5 238.1,467.2 36.1,373.9 500.5,196.5 
	1001,0 0,0 "/>
<polyline fill="#FAFBFE" points="1001,1000 490,1000 509,829 964.9,631.1 858.1,590 959.9,546.6 760,463.8 964.9,373.9 500.5,196.5 
	1001,0 "/>
<polyline fill="none" stroke="#000000" stroke-width="22" stroke-miterlimit="10" points="858.1,590 964.9,631.1 500.5,829 
	36.1,631.1 142.9,590 "/>
<polyline fill="none" stroke="#000000" stroke-width="22" stroke-miterlimit="10" points="754.1,463.8 964.9,544.5 878.7,581.2 
	500.5,742.4 122.3,581.2 36.1,544.5 246.9,463.8 "/>
<polygon fill="none" stroke="#000000" stroke-width="22" stroke-miterlimit="10" points="687.7,492.1 500.5,571.9 313.3,492.1 
	227.1,455.4 36.1,373.9 500.5,196.5 964.9,373.9 773.9,455.4 "/>
</svg>
